<?xml version="1.0" encoding="UTF-8"?>
<!DOCTYPE svg PUBLIC "-//W3C//DTD SVG 1.1//EN" "http://www.w3.org/Graphics/SVG/1.1/DTD/svg11.dtd">
<!-- Creator: CorelDRAW X7 -->
<svg xmlns="http://www.w3.org/2000/svg" xml:space="preserve" width="148.168mm" height="146.656mm" version="1.1" style="shape-rendering:geometricPrecision; text-rendering:geometricPrecision; image-rendering:optimizeQuality; fill-rule:evenodd; clip-rule:evenodd"
viewBox="0 0 3682 3644"
 xmlns:xlink="http://www.w3.org/1999/xlink">
 <defs>
  <style type="text/css">
   <![CDATA[
    .fil0 {fill:#F5E0AD}
   ]]>
  </style>
 </defs>
 <g id="Capa_x0020_1">
  <metadata id="CorelCorpID_0Corel-Layer"/>
  <path class="fil0" d="M2078 2069c0,-69 249,-383 491,-403l0 806c-98,-2 -247,-94 -301,-146 -47,-46 -190,-196 -190,-257zm-212 530c125,0 208,4 208,91 0,72 -58,180 -149,214 10,87 39,157 80,207 38,46 86,77 141,90 57,14 120,11 185,-11 125,-42 256,-151 360,-334l86 49c-117,206 -268,330 -415,379 -83,28 -165,32 -239,13 -76,-18 -143,-60 -195,-123 -22,-27 -40,-57 -56,-91 -16,34 -35,64 -56,91 -52,63 -119,105 -195,123 -74,19 -156,15 -240,-13 -146,-49 -297,-173 -414,-379l86 -49c104,183 235,292 360,334 65,22 128,25 185,11 54,-13 103,-44 141,-90 41,-50 69,-117 79,-203 -106,-28 -196,-142 -196,-218 0,-87 119,-91 244,-91zm-753 -127c0,-269 0,-537 0,-806 147,12 320,144 406,260 107,143 110,142 5,282 -33,45 -70,78 -110,118 -55,53 -201,144 -301,146zm1692 0l0 -806c145,12 317,149 404,263 102,133 108,139 5,277 -89,117 -270,263 -409,266zm-1928 -806l0 806c-52,-1 -125,-35 -164,-55 -100,-51 -173,-120 -241,-206 -111,-142 -97,-152 -2,-277 42,-56 110,-127 168,-165 64,-43 157,-97 239,-103zm-877 412c0,308 30,520 196,768 120,179 232,289 400,415 680,511 1811,511 2490,0 123,-93 213,-170 311,-294 96,-123 168,-235 220,-393 69,-206 65,-265 65,-479 0,-237 -39,-471 -84,-670 -34,-150 -78,-288 -134,-427 -113,-281 -291,-611 -494,-829 -114,-122 -182,-244 -316,-110l-115 130c-134,172 -123,152 -247,341 -25,36 -108,179 -118,215 -91,0 -157,-17 -254,-17l-149 0c-100,0 -174,17 -263,17 -46,-87 -123,-237 -183,-317l-143 -190c-51,-64 -182,-238 -261,-238 -66,0 -122,71 -157,115 -29,37 -79,81 -130,150 -98,132 -143,187 -230,340 -12,20 -18,36 -31,58 -213,357 -373,981 -373,1415z"/>
 </g>
</svg>
