<?xml version="1.0" encoding="UTF-8"?>
<!DOCTYPE svg PUBLIC "-//W3C//DTD SVG 1.1//EN" "http://www.w3.org/Graphics/SVG/1.1/DTD/svg11.dtd">
<!-- Creator: CorelDRAW X7 -->
<svg xmlns="http://www.w3.org/2000/svg" xml:space="preserve" width="34.5335mm" height="34.2085mm" version="1.1" style="shape-rendering:geometricPrecision; text-rendering:geometricPrecision; image-rendering:optimizeQuality; fill-rule:evenodd; clip-rule:evenodd"
viewBox="0 0 1622 1607"
 xmlns:xlink="http://www.w3.org/1999/xlink">
 <defs>
  <style type="text/css">
   <![CDATA[
    .fil0 {fill:#30220B;fill-rule:nonzero}
   ]]>
  </style>
 </defs>
 <g id="Capa_x0020_1">
  <metadata id="CorelCorpID_0Corel-Layer"/>
  <path class="fil0" d="M811 208c32,-49 66,-89 106,-122 71,-57 155,-86 264,-86 122,0 232,50 312,131 80,81 129,192 129,315 0,332 -257,652 -561,971 -18,18 -36,38 -52,56 -21,23 -39,43 -58,61 -113,109 -174,106 -352,-78 -320,-331 -599,-665 -599,-1010 0,-123 49,-234 129,-315 80,-81 190,-131 312,-131 109,0 193,29 264,86 40,33 74,73 106,122z"/>
 </g>
</svg>
