<?xml version="1.0" encoding="UTF-8"?>
<!DOCTYPE svg PUBLIC "-//W3C//DTD SVG 1.1//EN" "http://www.w3.org/Graphics/SVG/1.1/DTD/svg11.dtd">
<!-- Creator: CorelDRAW X7 -->
<svg xmlns="http://www.w3.org/2000/svg" xml:space="preserve" width="34.5335mm" height="34.2085mm" version="1.1" style="shape-rendering:geometricPrecision; text-rendering:geometricPrecision; image-rendering:optimizeQuality; fill-rule:evenodd; clip-rule:evenodd"
viewBox="0 0 4206 4167"
 xmlns:xlink="http://www.w3.org/1999/xlink">
 <defs>
  <style type="text/css">
   <![CDATA[
    .fil0 {fill:#30220B;fill-rule:nonzero}
   ]]>
  </style>
 </defs>
 <g id="Capa_x0020_1">
  <metadata id="CorelCorpID_0Corel-Layer"/>
  <path class="fil0" d="M2103 540c83,-127 172,-233 275,-316 184,-149 401,-224 685,-224 316,0 602,130 809,340 207,209 334,498 334,816 0,860 -667,1692 -1456,2518 -45,48 -92,99 -134,145 -55,59 -102,111 -150,158 -293,283 -451,276 -912,-201 -830,-860 -1554,-1724 -1554,-2620 0,-318 128,-607 334,-816 207,-210 493,-340 809,-340 284,0 501,75 685,224 103,83 192,189 275,316zm505 -33c-127,102 -232,265 -341,486 -101,228 -210,219 -327,0 -109,-221 -215,-384 -342,-486 -116,-95 -259,-142 -455,-142 -215,0 -409,88 -549,231 -141,143 -229,341 -229,560 0,766 677,1565 1452,2367 244,253 310,275 396,191 36,-34 81,-84 133,-141 40,-43 84,-91 140,-150 734,-769 1355,-1533 1355,-2267 0,-219 -87,-417 -229,-560 -140,-143 -334,-231 -549,-231 -195,0 -339,47 -455,142z"/>
 </g>
</svg>
