<?xml version="1.0" encoding="UTF-8"?>
<!DOCTYPE svg PUBLIC "-//W3C//DTD SVG 1.1//EN" "http://www.w3.org/Graphics/SVG/1.1/DTD/svg11.dtd">
<!-- Creator: CorelDRAW X7 -->
<svg xmlns="http://www.w3.org/2000/svg" xml:space="preserve" width="148.168mm" height="146.656mm" version="1.1" style="shape-rendering:geometricPrecision; text-rendering:geometricPrecision; image-rendering:optimizeQuality; fill-rule:evenodd; clip-rule:evenodd"
viewBox="0 0 2111 2090"
 xmlns:xlink="http://www.w3.org/1999/xlink">
 <defs>
  <style type="text/css">
   <![CDATA[
    .fil1 {fill:none}
    .fil0 {fill:#F5E0AD}
   ]]>
  </style>
 </defs>
 <g id="Capa_x0020_1">
  <metadata id="CorelCorpID_0Corel-Layer"/>
  <path class="fil0" d="M1191 1186c0,-23 52,-99 124,-157l158 49 0 339c-56,-1 -142,-54 -172,-84 -28,-26 -110,-112 -110,-147zm-144 304c71,0 119,2 119,52 0,42 -33,103 -85,123 6,29 19,55 39,77 37,41 98,74 180,98l-16 54c-93,-27 -162,-65 -206,-114 -11,-12 -21,-26 -29,-40 -8,14 -18,28 -30,40 -44,49 -113,87 -206,114l-16 -54c83,-24 143,-57 180,-98 20,-22 33,-47 39,-75 -59,-18 -109,-82 -109,-125 0,-50 68,-52 140,-52zm-256 -465l-153 47 0 345c58,-1 141,-53 173,-84 23,-22 44,-41 63,-67 60,-80 58,-80 -3,-162 -20,-26 -48,-55 -80,-79zm-288 89l-275 86c5,17 18,37 43,67 38,50 80,90 138,119 22,11 64,31 94,31l0 -303zm1105 6l273 85c-6,15 -18,33 -38,60 -51,67 -155,151 -235,152l0 -297zm-1608 71c0,177 17,299 113,441 68,102 132,165 229,238 390,293 1038,293 1427,0 71,-53 123,-97 178,-169 56,-71 97,-135 127,-225 39,-119 37,-152 37,-275 0,-136 -22,-270 -48,-384 -20,-86 -45,-165 -77,-245 -65,-161 -167,-350 -283,-475 -65,-70 -105,-140 -181,-63l-66 74c-77,99 -71,88 -142,196 -14,21 -62,103 -67,123 -52,0 -90,-10 -146,-10l-86 0c-57,0 -99,10 -150,10 -27,-50 -71,-136 -105,-181l-82 -110c-30,-36 -105,-136 -150,-136 -38,0 -70,41 -90,66 -17,21 -45,46 -75,86 -56,76 -81,107 -132,195 -6,11 -10,20 -17,33 -122,205 -214,563 -214,811z"/>
  <path class="fil1" d="M1047 1596c17,131 -66,220 -242,271m246 -271c-17,131 66,220 241,271"/>
 </g>
</svg>
