<?xml version="1.0" encoding="UTF-8"?>
<!DOCTYPE svg PUBLIC "-//W3C//DTD SVG 1.1//EN" "http://www.w3.org/Graphics/SVG/1.1/DTD/svg11.dtd">
<!-- Creator: CorelDRAW X7 -->
<svg xmlns="http://www.w3.org/2000/svg" xml:space="preserve" width="101.6mm" height="101.6mm" version="1.1" style="shape-rendering:geometricPrecision; text-rendering:geometricPrecision; image-rendering:optimizeQuality; fill-rule:evenodd; clip-rule:evenodd"
viewBox="0 0 1726 1726"
 xmlns:xlink="http://www.w3.org/1999/xlink">
 <defs>
  <style type="text/css">
   <![CDATA[
    .fil0 {fill:#30220B}
   ]]>
  </style>
 </defs>
 <g id="Capa_x0020_1">
  <metadata id="CorelCorpID_0Corel-Layer"/>
  <path class="fil0" d="M863 0c477,0 863,386 863,863 0,477 -386,863 -863,863 -477,0 -863,-386 -863,-863 0,-477 386,-863 863,-863zm0 680l0 0c69,0 126,56 126,125l0 536c0,69 -57,126 -126,126l0 0c-69,0 -126,-57 -126,-126l0 -536c0,-69 57,-125 126,-125zm0 -369c70,0 128,57 128,128 0,70 -58,127 -128,127 -71,0 -128,-57 -128,-127 0,-71 57,-128 128,-128z"/>
 </g>
</svg>
