<?xml version="1.0" encoding="UTF-8"?>
<!DOCTYPE svg PUBLIC "-//W3C//DTD SVG 1.1//EN" "http://www.w3.org/Graphics/SVG/1.1/DTD/svg11.dtd">
<!-- Creator: CorelDRAW X7 -->
<svg xmlns="http://www.w3.org/2000/svg" xml:space="preserve" width="22.3677mm" height="30.2308mm" version="1.1" style="shape-rendering:geometricPrecision; text-rendering:geometricPrecision; image-rendering:optimizeQuality; fill-rule:evenodd; clip-rule:evenodd"
viewBox="0 0 477 645"
 xmlns:xlink="http://www.w3.org/1999/xlink">
 <defs>
  <style type="text/css">
   <![CDATA[
    .fil0 {fill:#30220B}
   ]]>
  </style>
 </defs>
 <g id="Capa_x0020_1">
  <metadata id="CorelCorpID_0Corel-Layer"/>
  <g id="_1746411969024">
   <g>
    <g>
     <path class="fil0" d="M86 12c0,10 -5,28 -13,42 -16,33 -15,80 3,111 15,24 16,30 7,70 -6,30 -15,49 -29,62 -11,10 -20,26 -20,34 0,8 -3,22 -8,29 -10,18 -2,38 15,38 11,0 13,-6 12,-29 -1,-24 2,-29 26,-40 25,-13 26,-13 31,2 13,33 37,59 56,59 10,0 18,-3 18,-7 0,-5 -4,-8 -10,-8 -6,0 -17,-7 -23,-16 -11,-16 -11,-18 16,-42 24,-21 34,-26 71,-27l44 -3 0 39c0,52 7,72 23,72 15,0 20,-11 8,-18 -8,-5 4,-72 13,-82 14,-14 29,1 46,45 21,53 28,63 46,63 18,0 18,-4 1,-22 -23,-23 -26,-77 -7,-135 13,-39 21,-53 38,-60 32,-16 23,-50 -19,-64 -7,-3 -13,-11 -13,-18 0,-9 -3,-10 -11,-3 -6,4 -15,7 -20,6 -6,-1 -12,9 -15,24 -8,37 -22,44 -65,37 -20,-3 -70,-6 -112,-6 -80,0 -87,-3 -100,-28 -12,-23 -11,-45 4,-84 11,-30 11,-33 0,-45 -12,-11 -13,-11 -13,4l0 0z"/>
    </g>
   </g>
   <path class="fil0" d="M121 632l0 -65 -59 -2 0 23 27 1 0 27c-41,6 -62,-14 -53,-56 11,-48 71,-24 79,-24l-1 -27c-118,-39 -147,100 -75,130 25,10 62,7 82,-7z"/>
   <path class="fil0" d="M354 618c-15,-32 2,-72 28,-48 12,10 17,59 -28,48zm-38 -15c7,60 115,58 105,-20 -8,-61 -114,-59 -105,20z"/>
   <path class="fil0" d="M168 603c8,-6 15,-6 27,-7 -3,38 -35,31 -27,7zm-23 -33c17,-1 41,-23 49,5 -11,8 -33,5 -45,13 -27,19 -11,71 33,53 9,-4 1,-7 15,-3l28 2c0,-25 4,-70 -8,-86 -14,-18 -50,-15 -72,-4l0 20z"/>
   <path class="fil0" d="M280 435c5,4 16,22 21,30 17,26 10,24 29,23l0 -72 -12 0 -1 54 -30 -47c-7,-10 -6,-7 -19,-8l0 74 12 -1 0 -53z"/>
   <path class="fil0" d="M238 562c6,3 -8,5 16,5 0,47 -9,87 53,75l0 -20 -21 -4 0 -50 21 -3 0 -20 -21 0 -1 -31 -31 8 0 23c-20,0 -16,-5 -16,17z"/>
   <path class="fil0" d="M361 426c20,0 35,4 34,27 0,21 -14,25 -35,25l1 -52zm-14 62c32,5 61,-5 61,-37 0,-34 -30,-40 -61,-35l0 72z"/>
   <path class="fil0" d="M163 425c12,0 23,-1 22,12 0,11 -10,12 -22,11l0 -23zm20 31c5,-5 18,-9 14,-26 -3,-18 -28,-15 -46,-14l0 72 12 0 0 -30c29,-1 11,30 43,31 -6,-13 -14,-26 -23,-33z"/>
   <path class="fil0" d="M36 460c2,-9 6,-22 11,-29l10 29 -21 0zm-23 29c24,0 10,-6 18,-16 5,-6 17,-3 30,-3 6,19 3,19 19,18l-20 -57c-6,-17 -6,-16 -20,-15l-27 73z"/>
   <path class="fil0" d="M103 425c12,0 23,1 23,14 0,14 -11,14 -23,14l0 -28zm0 38c21,0 40,-5 35,-30 -4,-19 -27,-20 -48,-17l0 72 13 0 0 -25z"/>
   <path class="fil0" d="M228 427c16,-3 26,4 26,-7 0,-9 -34,-4 -39,-4l0 72c8,1 17,1 25,1 18,0 15,3 16,-11l-29 0 1 -21c19,-2 24,4 24,-6 0,-9 -10,-3 -25,-6l1 -18z"/>
   <path class="fil0" d="M434 426c33,-1 26,3 26,-11l-39 0 0 74 36 -1c6,-2 2,2 5,-4 0,-10 -8,-6 -29,-6l1 -21c3,-1 12,0 14,0 16,-2 6,3 10,-6 -3,-7 8,-4 -25,-5l1 -20z"/>
   <polygon class="fil0" points="446,599 472,599 475,507 442,507 "/>
   <path class="fil0" d="M443 637c17,12 42,6 32,-16 -4,-10 -38,-18 -32,16z"/>
  </g>
 </g>
</svg>
