<?xml version="1.0" encoding="UTF-8"?>
<!DOCTYPE svg PUBLIC "-//W3C//DTD SVG 1.1//EN" "http://www.w3.org/Graphics/SVG/1.1/DTD/svg11.dtd">
<!-- Creator: CorelDRAW X7 -->
<svg xmlns="http://www.w3.org/2000/svg" xml:space="preserve" width="55.9215mm" height="19.5207mm" version="1.1" style="shape-rendering:geometricPrecision; text-rendering:geometricPrecision; image-rendering:optimizeQuality; fill-rule:evenodd; clip-rule:evenodd"
viewBox="0 0 1677 585"
 xmlns:xlink="http://www.w3.org/1999/xlink">
 <defs>
  <style type="text/css">
   <![CDATA[
    .fil0 {fill:#30220B}
   ]]>
  </style>
 </defs>
 <g id="Capa_x0020_1">
  <metadata id="CorelCorpID_0Corel-Layer"/>
  <g id="_1748016540128">
   <g>
    <g>
     <path class="fil0" d="M91 18c0,13 -8,39 -18,58 -24,46 -22,113 4,156 20,33 21,42 9,98 -8,42 -21,68 -41,87 -16,14 -28,36 -28,48 0,12 -5,31 -11,41 -14,26 -3,53 21,53 15,0 18,-8 17,-40 -1,-35 3,-41 36,-57 36,-18 37,-18 45,3 18,47 51,84 78,84 14,0 25,-6 25,-11 0,-6 -6,-11 -15,-11 -8,0 -23,-10 -31,-23 -16,-22 -15,-25 22,-59 34,-30 48,-36 100,-38l62 -3 0 54c0,74 9,101 33,101 21,0 27,-16 10,-25 -10,-8 5,-102 19,-116 19,-19 40,3 65,64 29,75 39,88 64,88 26,0 26,-6 1,-30 -32,-33 -37,-109 -9,-190 18,-55 29,-74 53,-85 45,-22 31,-70 -27,-90 -10,-4 -19,-15 -19,-24 0,-14 -3,-15 -15,-5 -8,6 -21,10 -28,9 -8,-2 -16,12 -21,34 -11,51 -31,61 -91,52 -29,-4 -99,-9 -157,-10 -113,0 -123,-3 -142,-39 -16,-32 -14,-63 7,-117 16,-43 16,-47 0,-64 -17,-16 -18,-16 -18,7l0 0z"/>
    </g>
   </g>
   <path class="fil0" d="M941 558l0 -135 -123 -3 0 48 56 2 0 55c-84,12 -129,-29 -109,-115 22,-100 147,-51 162,-50l0 -56c-245,-81 -305,207 -156,268 52,21 127,14 170,-14z"/>
   <path class="fil0" d="M1423 529c-31,-66 3,-148 57,-100 24,21 34,122 -57,100zm-79 -31c15,125 237,120 216,-42 -16,-126 -235,-121 -216,42z"/>
   <path class="fil0" d="M1036 499c18,-14 33,-13 58,-16 -7,79 -74,64 -58,16zm-46 -69c35,-2 85,-47 102,11 -24,15 -69,9 -94,26 -56,39 -23,147 68,109 20,-8 2,-13 31,-6l58 4c0,-51 8,-145 -17,-178 -28,-37 -102,-31 -148,-8l0 42z"/>
   <path class="fil0" d="M1269 150c11,10 32,45 44,63 35,53 20,50 58,48l0 -150 -24 0 -1 111 -63 -96c-13,-21 -12,-16 -39,-16l0 151 24 -1 1 -110z"/>
   <path class="fil0" d="M1183 413c12,7 -17,11 32,11 0,97 -19,180 109,155l2 -42 -44 -8 -1 -104 44 -5 0 -42 -44 -1 -1 -63 -64 17 -1 46c-42,1 -32,-9 -32,36z"/>
   <path class="fil0" d="M1436 132c42,0 73,9 71,56 -1,44 -29,52 -74,52l3 -108zm-28 128c65,11 126,-9 126,-76 0,-70 -62,-83 -126,-72l0 148z"/>
   <path class="fil0" d="M1027 131c24,-1 47,-2 46,23 -1,25 -22,25 -47,24l1 -47zm41 64c10,-11 38,-19 30,-54 -8,-37 -59,-31 -97,-30l0 150 25 0 0 -62c61,-2 23,62 90,62 -12,-26 -29,-53 -48,-66z"/>
   <path class="fil0" d="M764 202c5,-18 13,-45 24,-59l20 60 -44 -1zm-47 60c49,-1 20,-11 38,-33 10,-11 35,-6 61,-5 13,38 7,38 40,37l-43 -118c-12,-35 -11,-33 -41,-32l-55 151z"/>
   <path class="fil0" d="M903 131c24,0 47,0 47,28 0,28 -23,29 -48,29l1 -57zm0 77c42,0 83,-10 73,-62 -8,-38 -57,-41 -99,-34l0 149 25 -1 1 -52z"/>
   <path class="fil0" d="M1161 133c34,-5 55,9 55,-13 -1,-18 -71,-9 -82,-8l0 148c17,2 36,2 53,2 36,1 31,6 32,-22l-59 -1 1 -42c39,-6 50,8 50,-13 -1,-19 -20,-6 -52,-12l2 -39z"/>
   <path class="fil0" d="M1587 132c69,-1 54,6 55,-22l-82 0 0 151 74 0c14,-5 5,3 11,-9 0,-20 -17,-12 -59,-12l1 -45c6,0 25,1 29,1 34,-5 13,5 21,-12 -7,-14 16,-9 -52,-11l2 -41z"/>
   <polygon class="fil0" points="1612,490 1665,489 1672,299 1604,299 "/>
   <path class="fil0" d="M1605 569c35,25 87,13 67,-33 -9,-22 -78,-37 -67,33z"/>
  </g>
 </g>
</svg>
